<svg width="24" height="25" viewBox="0 0 24 25" fill="none" xmlns="http://www.w3.org/2000/svg">
<g id="icon-park-outline:check-one">
<g id="Group">
<path id="Vector" d="M12 22.5C13.3135 22.5017 14.6143 22.2438 15.8278 21.7412C17.0413 21.2385 18.1435 20.501 19.071 19.571C20.001 18.6435 20.7385 17.5413 21.2412 16.3278C21.7438 15.1143 22.0017 13.8135 22 12.5C22.0017 11.1865 21.7438 9.8857 21.2411 8.67222C20.7385 7.45875 20.001 6.35656 19.071 5.42901C18.1435 4.49902 17.0413 3.76151 15.8278 3.25885C14.6143 2.75619 13.3135 2.49831 12 2.50001C10.6865 2.49833 9.3857 2.75623 8.17222 3.25889C6.95875 3.76154 5.85656 4.49904 4.92901 5.42901C3.99904 6.35656 3.26154 7.45875 2.75889 8.67222C2.25623 9.8857 1.99833 11.1865 2.00001 12.5C1.99831 13.8135 2.25619 15.1143 2.75885 16.3278C3.26151 17.5413 3.99902 18.6435 4.92901 19.571C5.85656 20.501 6.95875 21.2385 8.17222 21.7411C9.3857 22.2438 10.6865 22.5017 12 22.5Z" stroke="#FFAF00" stroke-width="1.33333" stroke-linejoin="round"/>
<path id="Vector_2" d="M8 12.5L11 15.5L17 9.5" stroke="#FFAF00" stroke-width="1.33333" stroke-linecap="round" stroke-linejoin="round"/>
</g>
</g>
</svg>
